<svg width="32" height="32" viewBox="0 0 32 32" fill="none" xmlns="http://www.w3.org/2000/svg">
<path d="M31.8425 16.4461L28.3766 11.001L31.8425 5.55593C32.0045 5.29621 32.0439 4.97203 31.9495 4.67711C31.8544 4.38219 31.6364 4.15074 31.359 4.05314L20.0466 0.0533467C19.6419 -0.0921793 19.2043 0.0718791 18.9699 0.44686L16 5.19855L13.03 0.44686C12.7938 0.0699459 12.3525 -0.0931792 11.9533 0.0533467L0.64089 4.05314C0.363517 4.15081 0.145581 4.38226 0.0503942 4.67711C-0.0439176 4.97203 -0.0045429 5.29621 0.157518 5.556L3.62337 11.0011L0.157581 16.4461C-0.0044804 16.7058 -0.0438551 17.03 0.0504567 17.3249C0.145644 17.6199 0.363579 17.8513 0.640953 17.9489L11.9534 21.9487C12.3515 22.0915 12.7944 21.9321 13.0301 21.5552L16 16.8035L18.97 21.5552C19.2059 21.9325 19.649 22.0914 20.0467 21.9487L31.3591 17.9489C31.6365 17.8512 31.8544 17.6198 31.9496 17.3249C32.0439 17.03 32.0045 16.7058 31.8425 16.4461ZM16 13.9472L7.71365 11.0011L16 8.05494L24.2864 11.0011L16 13.9472Z" fill="black"/>
<path d="M20.6399 23.8461C19.4599 24.2683 18.1258 23.8104 17.4099 22.6645L16.0001 20.4089L14.5901 22.6645C13.8757 23.8082 12.5431 24.2703 11.3556 23.8441L3.81262 21.1625V27.0002C3.81262 27.4308 4.0708 27.8127 4.45349 27.9484L15.6979 31.9463C15.7318 31.9589 15.7657 31.9687 15.7995 31.9765C15.7995 31.9765 15.8005 31.9765 15.8005 31.9775H15.8014C15.8673 31.9922 15.9342 32 16.0001 32C16.0706 32 16.1402 31.9912 16.2097 31.9746C16.2408 31.9668 16.271 31.958 16.3013 31.9473L27.5466 27.9485C27.9293 27.8127 28.1874 27.4308 28.1874 27.0002V21.1626L20.6399 23.8461Z" fill="black"/>
</svg>
