<svg width="32" height="32" viewBox="0 0 32 32" fill="none" xmlns="http://www.w3.org/2000/svg">
<path d="M31.3143 28.1143C32.2286 29.0286 32.2286 30.4 31.3143 31.3143C30.8571 31.7714 30.4 32 29.7143 32C29.0286 32 28.5714 31.7714 28.1143 31.3143L16 19.2L3.88571 31.3143C3.42857 31.7714 2.97143 32 2.28571 32C1.6 32 1.14286 31.7714 0.685714 31.3143C-0.228571 30.4 -0.228571 29.0286 0.685714 28.1143L12.8 16L0.685714 3.88571C-0.228571 2.97143 -0.228571 1.6 0.685714 0.685714C1.6 -0.228571 2.97143 -0.228571 3.88571 0.685714L16 12.8L28.1143 0.685714C29.0286 -0.228571 30.4 -0.228571 31.3143 0.685714C32.2286 1.6 32.2286 2.97143 31.3143 3.88571L19.2 16L31.3143 28.1143Z" fill="black"/>
</svg>
