<svg width="32" height="32" viewBox="0 0 32 32" fill="none" xmlns="http://www.w3.org/2000/svg">
<path d="M26.6707 0H5.32931C2.39069 0 0 2.39069 0 5.32931V26.6706C0 29.6093 2.39069 32 5.32931 32H26.6706C29.6093 32 32 29.6093 32 26.6707V5.32931C32 2.39069 29.6093 0 26.6707 0ZM11.6373 19.0853C12.1413 19.6213 12.1173 20.4653 11.5813 20.9706C11.3226 21.2133 10.9946 21.3333 10.6666 21.3333C10.3119 21.3333 9.95862 21.1933 9.69594 20.9146L5.98263 16.9706C5.85194 16.8479 5.74531 16.6986 5.67063 16.5279C5.45994 16.0386 5.55594 15.4719 5.91994 15.0839L9.69594 11.0839C10.2026 10.5492 11.0452 10.5239 11.5813 11.0306C12.1173 11.5359 12.1412 12.3799 11.6372 12.9146L8.72794 15.9959L11.6373 19.0853ZM18.5973 12.4213L15.9306 20.4213C15.7453 20.98 15.2253 21.3333 14.6666 21.3333C14.5266 21.3333 14.3853 21.312 14.2453 21.2653C13.5466 21.032 13.1693 20.276 13.4026 19.5786L16.0693 11.5786C16.3026 10.8799 17.0506 10.4986 17.7546 10.7346C18.4533 10.968 18.8307 11.7227 18.5973 12.4213ZM26.276 16.9427L22.276 20.9427C22.016 21.2027 21.6747 21.3334 21.3333 21.3334C20.992 21.3334 20.6506 21.2027 20.3906 20.9427C19.8693 20.4214 19.8693 19.5787 20.3906 19.0574L23.448 16L20.3907 12.9427C19.8694 12.4214 19.8694 11.5787 20.3907 11.0574C20.912 10.5361 21.7547 10.5361 22.276 11.0574L26.276 15.0574C26.7973 15.5787 26.7973 16.4213 26.276 16.9427Z" fill="black"/>
</svg>
