<svg width="24" height="32" viewBox="0 0 24 32" fill="none" xmlns="http://www.w3.org/2000/svg">
<path d="M6.52246 17.9702L9.6001 13.8667C9.83472 13.5613 10.1887 13.3711 10.5728 13.3438C10.9568 13.3164 11.334 13.4548 11.6096 13.7239L14.6667 16.781L22.0476 9.3999C19.7981 3.54883 16.0613 0 12 0C9.24023 0 6.63477 1.60791 4.46411 4.6499C2.96069 6.75708 1.75806 9.46021 0.980713 12.429L6.52246 17.9702Z" fill="black"/>
<path d="M15.6096 19.6096C15.0889 20.1301 14.2446 20.1301 13.7239 19.6096L10.8108 16.6965L7.7334 20.8C7.49878 21.1055 7.14478 21.2959 6.76074 21.3232C6.37671 21.3503 5.99927 21.2119 5.72388 20.9429L0.337402 15.5564C0.114502 17.0271 0.00170899 18.5125 0 20C0 26.6274 5.37256 32 12 32C18.6274 32 24 26.6274 24 20C23.9941 17.3821 23.6484 14.7761 22.9719 12.2471L15.6096 19.6096Z" fill="black"/>
</svg>
