<svg width="32" height="32" viewBox="0 0 32 32" fill="none" xmlns="http://www.w3.org/2000/svg">
<path d="M31.0936 10.1068L16.8175 0.253333C16.3282 -0.0844444 15.6833 -0.0844444 15.194 0.253333L0.918028 10.1068C0.13702 10.7162 -0.0524538 11.0657 0.0114982 13.6908V25.9529C0.0114982 29.2874 2.70365 32 6.01266 32H25.9992C29.3079 32 32 29.2873 32 25.9529V13.6908C32 11.5932 32 10.8547 31.0936 10.1068ZM25.9991 29.2069H6.01266C4.23206 29.2069 2.7834 27.7472 2.7834 25.953V13.783L15.194 22.3489C15.4386 22.5176 15.7222 22.6021 16.0058 22.6021C16.2894 22.6021 16.5728 22.5177 16.8175 22.3489L29.2281 13.783V25.9529C29.2281 27.7472 27.7795 29.2069 25.9991 29.2069Z" fill="black"/>
</svg>
