<svg width="32" height="32" viewBox="0 0 32 32" fill="none" xmlns="http://www.w3.org/2000/svg">
<path d="M15.998 0C7.164 0 0 7.3449 0 16.4055C0 23.6524 4.584 29.8004 10.944 31.9715C11.744 32.1227 12.036 31.6161 12.036 31.1811C12.036 30.791 12.022 29.7595 12.014 28.391C7.564 29.3816 6.624 26.1912 6.624 26.1912C5.898 24.2958 4.848 23.7913 4.848 23.7913C3.394 22.7741 4.956 22.7945 4.956 22.7945C6.562 22.9109 7.406 24.4857 7.406 24.4857C8.834 26.9919 11.152 26.2688 12.064 25.8481C12.208 24.788 12.622 24.065 13.08 23.6544C9.528 23.2398 5.792 21.8325 5.792 15.5477C5.792 13.7564 6.416 12.2919 7.44 11.144C7.274 10.7294 6.726 9.06061 7.596 6.80363C7.596 6.80363 8.94 6.36245 11.996 8.48462C13.272 8.12106 14.64 7.93927 16.002 7.93314C17.36 7.94131 18.73 8.12106 20.008 8.48667C23.062 6.36449 24.404 6.80567 24.404 6.80567C25.276 9.0647 24.728 10.7314 24.564 11.146C25.59 12.2939 26.208 13.7584 26.208 15.5497C26.208 21.8509 22.468 23.2377 18.904 23.6442C19.478 24.1507 19.99 25.1516 19.99 26.6814C19.99 28.8751 19.97 30.6439 19.97 31.1811C19.97 31.6202 20.258 32.1309 21.07 31.9695C27.42 29.7963 32 23.6503 32 16.4055C32 7.3449 24.836 0 15.998 0Z" fill="black"/>
</svg>
