<svg width="32" height="32" viewBox="0 0 32 32" fill="none" xmlns="http://www.w3.org/2000/svg">
<path d="M16 0C7.17775 0 0 7.17775 0 16C0 24.8223 7.17775 32 16 32C24.8223 32 32 24.8223 32 16C32 7.17775 24.8223 0 16 0ZM16 29.3333C12.3678 29.3333 9.07375 27.8697 6.66669 25.5059V23.3333C6.66669 22.6992 6.95056 22.291 7.27869 21.8183C7.61656 21.3321 8 20.7806 8 20C8 18.7285 6.85219 18.5996 6.235 18.5306C5.79356 18.4811 5.37694 18.4342 5.138 18.1953C4.957 18.0143 4.776 17.6856 4.58462 17.3379C4.20456 16.6464 3.68938 15.7319 2.70856 15.1719C3.13975 8.206 8.92731 2.66669 16 2.66669C16.3659 2.66669 16.7257 2.69256 17.0843 2.72163C17.0113 2.76956 16.9219 2.80212 16.862 2.862C16.7324 2.99156 16.6615 3.16931 16.6667 3.35287C16.6726 3.53581 16.7533 3.709 16.89 3.83137C17.1296 4.04425 17.1758 4.15169 17.1849 4.15169C17.1699 4.18356 17.0476 4.39256 16.3652 4.73894C15.2389 5.30988 13.9382 6.4785 13.7448 7.69469C13.6562 8.24675 13.8164 8.75912 14.1953 9.13806C14.3203 9.26306 14.4896 9.33337 14.6667 9.33337C15.5925 9.33337 16.3079 8.99094 17 8.66019C17.7103 8.32094 18.3815 8 19.3333 8C21.9499 8 24 8.58594 24 9.33331C24 9.60737 23.9147 9.69137 23.8822 9.72262C23.5547 10.0449 22.4395 10.0241 21.459 10.0091C21.1992 10.0045 20.9336 9.99994 20.6667 9.99994C19.7617 9.99994 19.4811 9.86775 19.1562 9.71412C18.778 9.53575 18.3496 9.33325 17.3333 9.33325C16.2344 9.33325 14.1921 9.53181 12.8619 10.8619C11.7741 11.9491 11.8892 13.2499 11.9648 14.1099C11.9824 14.3079 12 14.4954 12 14.6666C12 15.9797 13.3418 16.6666 14.6667 16.6666C16.7044 16.6666 18.4662 17.0467 18.6667 17.3333C18.6667 18.0794 18.8887 18.5891 19.0671 18.9979C19.2155 19.3398 19.3333 19.6092 19.3333 19.9999C19.3333 20.3019 19.2838 20.3664 19.1504 20.5383C18.8958 20.8691 18.6666 21.2291 18.6666 21.9999C18.6666 23.4029 20.0176 24.9419 20.1712 25.1132C20.2994 25.2551 20.4804 25.3333 20.6666 25.3333C20.7219 25.3333 20.7773 25.3267 20.832 25.3124C21.2246 25.2115 24.6666 24.2642 24.6666 21.9999C24.6666 21.2903 24.8873 21.0989 25.2219 20.8085C25.5501 20.5233 25.9999 20.1334 25.9999 19.3333C25.9999 18.7987 26.9485 17.4192 27.8274 16.4472C27.9518 16.3098 28.0136 16.1263 27.9974 15.9413C27.9811 15.7564 27.8886 15.5865 27.7422 15.4732C27.2239 15.0715 25.7929 13.7636 25.3138 12.4947C25.5853 12.6366 25.9251 12.8678 26.1953 13.1379C26.4173 13.3612 26.7149 13.468 27.0534 13.4544C27.5933 13.4236 28.2347 12.9969 28.8426 12.4648C29.1536 13.5927 29.3334 14.7746 29.3334 16C29.3333 23.3522 23.3522 29.3333 16 29.3333Z" fill="black"/>
</svg>
