<svg width="32" height="32" viewBox="0 0 32 32" fill="none" xmlns="http://www.w3.org/2000/svg">
<path d="M17.3214 0H14.6788C6.58482 0 0 6.92202 0 15.4303V20.3902V22.479V26.5742C0 29.566 2.31556 32 5.16179 32H7.93407C8.91745 32 9.71478 31.1618 9.71478 30.1279V16.8364C9.71478 15.8025 8.91745 14.9643 7.93407 14.9643H5.16179C4.60419 14.9643 4.06748 15.0589 3.5641 15.2316C3.66552 8.87923 8.61202 3.74409 14.6787 3.74409H17.3213C23.388 3.74409 28.3345 8.87914 28.4359 15.2316C27.9325 15.0589 27.3958 14.9643 26.8382 14.9643H24.0659C23.0825 14.9643 22.2852 15.8025 22.2852 16.8364V30.1279C22.2852 31.1619 23.0826 32 24.0659 32H26.8382C29.6844 32 32 29.566 32 26.5742V22.479V20.3902V15.4303C32.0001 6.92202 25.4153 0 17.3214 0Z" fill="black"/>
</svg>
