<svg width="32" height="27" viewBox="0 0 32 27" fill="none" xmlns="http://www.w3.org/2000/svg">
<path d="M29.3418 2.73593C27.6262 0.971708 25.3457 8.89272e-05 22.9199 8.89272e-05C21.5147 8.89272e-05 20.1776 0.313996 18.9459 0.933181L16.0003 2.41446L13.0537 0.932736C11.8224 0.313908 10.4856 0 9.08061 0C6.65458 0 4.37342 0.972153 2.65701 2.73753C0.957645 4.48609 0.0139925 6.81308 0.000154653 9.28973C-0.0136832 11.7635 0.901515 14.0997 2.57727 15.8677C2.64854 15.9429 2.72257 16.0156 2.79911 16.0849L13.2666 25.6021C14.0473 26.3117 15.0237 26.6667 16.0001 26.6667C16.9766 26.6667 17.953 26.3117 18.7336 25.6021L29.2022 16.0841C29.279 16.0141 29.3533 15.9416 29.425 15.8658C31.0998 14.0975 32.0143 11.7616 31.9998 9.28777C31.9853 6.81156 31.0416 4.48511 29.3418 2.73593Z" fill="black"/>
</svg>
