<svg width="32" height="32" viewBox="0 0 32 32" fill="none" xmlns="http://www.w3.org/2000/svg">
<path d="M16.0002 11.1409C16.8889 11.1409 17.612 10.4187 17.612 9.53109C17.612 8.64025 16.8889 7.91548 16.0002 7.91548C15.1115 7.91548 14.3884 8.64025 14.3884 9.53109C14.3884 10.4187 15.1114 11.1409 16.0002 11.1409Z" fill="black"/>
<path d="M18.8608 21.7755H17.1469V15.351C17.1469 14.7177 16.6336 14.2042 16.0001 14.2042H13.1397C12.5063 14.2042 11.9929 14.7177 11.9929 15.351C11.9929 15.9843 12.5063 16.4978 13.1397 16.4978H14.8534V22.9223C14.8534 23.5556 15.3669 24.0691 16.0002 24.0691H18.8609C19.4944 24.0691 20.0077 23.5556 20.0077 22.9223C20.0076 22.2889 19.4943 21.7755 18.8608 21.7755Z" fill="black"/>
<path d="M16.0002 0C7.17756 0 0 7.17756 0 15.9999C0 24.8223 7.17756 32 16.0002 32C24.8228 32 32.0003 24.8224 32.0003 15.9999C32.0003 7.1774 24.8226 0 16.0002 0ZM16.0002 29.7064C8.44224 29.7064 2.29359 23.5578 2.29359 15.9999C2.29359 8.44209 8.44224 2.29344 16.0002 2.29344C23.5582 2.29344 29.7067 8.44209 29.7067 15.9999C29.7067 23.5578 23.5581 29.7064 16.0002 29.7064Z" fill="black"/>
</svg>
