<svg width="32" height="32" viewBox="0 0 32 32" fill="none" xmlns="http://www.w3.org/2000/svg">
<path d="M7.156 10H0V32H7.156V10Z" fill="black"/>
<path d="M26.648 10.258C26.572 10.234 26.5 10.208 26.42 10.186C26.324 10.164 26.228 10.146 26.13 10.13C25.75 10.054 25.334 10 24.846 10C20.674 10 18.028 13.034 17.156 14.206V10H10V32H17.156V20C17.156 20 22.564 12.468 24.846 18C24.846 22.938 24.846 32 24.846 32H32V17.154C32 13.83 29.722 11.06 26.648 10.258Z" fill="black"/>
<path d="M3.5 7C5.433 7 7 5.433 7 3.5C7 1.567 5.433 0 3.5 0C1.567 0 0 1.567 0 3.5C0 5.433 1.567 7 3.5 7Z" fill="black"/>
</svg>
