<svg width="32" height="32" viewBox="0 0 32 32" fill="none" xmlns="http://www.w3.org/2000/svg">
<path d="M31.1609 23.4847L26.6858 19.0191C25.0875 17.4242 22.3705 18.0622 21.7312 20.1355C21.2517 21.5709 19.6535 22.3684 18.2151 22.0493C15.0186 21.2519 10.7033 17.1052 9.90419 13.7559C9.42471 12.3205 10.3837 10.7256 11.8221 10.2472C13.8998 9.60921 14.5391 6.8979 12.9409 5.30301L8.46576 0.837317C7.18717 -0.279106 5.26927 -0.279106 4.1505 0.837317L1.11383 3.86761C-1.92284 7.05739 1.43348 15.5103 8.94524 23.0063C16.457 30.5023 24.9277 34.0111 28.1242 30.8212L31.1609 27.7909C32.2797 26.515 32.2797 24.6012 31.1609 23.4847Z" fill="black"/>
</svg>
