<svg width="32" height="32" viewBox="0 0 32 32" fill="none" xmlns="http://www.w3.org/2000/svg">
<path d="M31.9994 3.04622C32.0134 2.08373 31.7638 1.33831 31.2581 0.830787L31.1719 0.744334C30.6796 0.25034 29.9613 0 29.0373 0C26.9966 0 24.4555 1.24424 23.3627 2.40638C22.5717 3.24742 21.6205 4.28579 20.575 5.45073L7.16111 2.49703C7.04485 2.47137 6.91914 2.45831 6.78801 2.45831C6.22037 2.45831 5.5974 2.70072 5.2381 3.06146L3.59829 4.70608C3.33447 4.97057 3.21682 5.30721 3.27557 5.62939C3.33431 5.95172 3.56295 6.22492 3.90288 6.3787L15.2689 11.5259C13.9491 13.0769 12.6348 14.6531 11.4143 16.1603C10.5647 17.2094 9.78939 18.189 9.08876 19.0975L2.41172 18.4278C2.04435 18.3907 1.56693 18.563 1.30761 18.8232L0.230005 19.9042C0.0576381 20.077 -0.0240502 20.3057 0.00617602 20.5316C0.0364022 20.7575 0.174978 20.9566 0.386561 21.078L5.5695 24.049C4.15693 26.347 4.26916 27.0148 4.62629 27.3731L4.71247 27.4595C4.86159 27.6093 5.06589 27.685 5.31979 27.685C5.86107 27.685 6.79328 27.255 7.98853 26.5222L10.8882 31.6124C11.0266 31.8551 11.2649 32 11.5253 32C11.7208 32 11.9099 31.9182 12.0582 31.7694L13.1358 30.6884C13.3975 30.4261 13.567 29.9499 13.53 29.5807L12.8787 23.0467C15.2833 21.1878 17.9489 18.9776 20.4706 16.8168L25.5414 28.0847C25.7229 28.4881 26.0638 28.7288 26.453 28.7288C26.7227 28.7288 26.9914 28.6087 27.209 28.3903L28.8488 26.7455C29.3014 26.2912 29.5486 25.4439 29.4113 24.8163L26.5006 11.5153C27.7923 10.3502 28.866 9.36039 29.6015 8.66441C30.731 7.59526 31.9692 5.14317 31.9994 3.04622Z" fill="black"/>
</svg>
