<svg width="32" height="32" viewBox="0 0 32 32" fill="none" xmlns="http://www.w3.org/2000/svg">
<path d="M30.9591 28.801V14.3408C30.9591 13.5861 30.3124 12.9743 29.5145 12.9743H22.6541V9.03994C22.6541 8.66834 22.4412 8.32586 22.0983 8.1449L16.5279 5.20657C16.4972 5.19033 16.4655 5.17609 16.4336 5.16297V3.48617H19.4332C19.6725 3.48617 19.8666 3.30257 19.8666 3.07617V1.00528C19.8666 0.778882 19.6725 0.595281 19.4332 0.595281H16.4336V0.410001C16.4336 0.1836 16.2397 0 16.0003 0C15.7608 0 15.5669 0.1836 15.5669 0.410001V5.16297C15.535 5.17617 15.5033 5.19041 15.4725 5.20657L9.9021 8.14498C9.55888 8.32586 9.34616 8.66842 9.34616 9.04002V12.9743H2.48561C1.68769 12.9743 1.041 13.5861 1.041 14.3408V28.8009C0.427209 29.0636 0 29.6475 0 30.326C0 31.2506 0.792337 32 1.76973 32H30.2303C31.2077 32 32 31.2506 32 30.326C31.9999 29.6475 31.5728 29.0636 30.9591 28.801ZM25.3748 17.7373C25.3748 17.2977 25.7516 16.9413 26.2167 16.9413H27.7903C28.255 16.9413 28.6319 17.2977 28.6319 17.7373V19.2259C28.6319 19.6655 28.255 20.0219 27.7903 20.0219H26.2168C25.7517 20.0219 25.3749 19.6655 25.3749 19.2259V17.7373H25.3748ZM25.3748 22.5201C25.3748 22.0805 25.7516 21.7241 26.2167 21.7241H27.7903C28.255 21.7241 28.6319 22.0805 28.6319 22.5201V24.0085C28.6319 24.4481 28.255 24.8045 27.7903 24.8045H26.2168C25.7517 24.8045 25.3749 24.4481 25.3749 24.0085V22.5201H25.3748ZM20.3186 17.7373C20.3186 17.2977 20.6952 16.9413 21.16 16.9413H22.7338C23.1983 16.9413 23.5752 17.2977 23.5752 17.7373V19.2259C23.5752 19.6655 23.1983 20.0219 22.7338 20.0219H21.16C20.6952 20.0219 20.3186 19.6655 20.3186 19.2259V17.7373ZM20.3186 22.5201C20.3186 22.0805 20.6952 21.7241 21.16 21.7241H22.7338C23.1983 21.7241 23.5752 22.0805 23.5752 22.5201V24.0085C23.5752 24.4481 23.1983 24.8045 22.7338 24.8045H21.16C20.6952 24.8045 20.3186 24.4481 20.3186 24.0085V22.5201ZM16 9.04314C17.3166 9.04314 18.3839 10.0526 18.3839 11.2979C18.3839 12.5432 17.3166 13.5525 16 13.5525C14.6834 13.5525 13.6162 12.5431 13.6162 11.2978C13.6162 10.0525 14.6834 9.04314 16 9.04314ZM13.6129 21.9869C13.6129 21.5473 13.9896 21.1909 14.4547 21.1909H17.5453C18.0102 21.1909 18.3869 21.5473 18.3869 21.9869V28.2582C18.3869 28.4017 18.3464 28.5362 18.2759 28.6525H13.7244C13.6539 28.5362 13.6132 28.4017 13.6132 28.2582L13.6129 21.9869ZM8.42459 17.7373C8.42459 17.2977 8.8013 16.9413 9.26607 16.9413H10.8397C11.3045 16.9413 11.6812 17.2977 11.6812 17.7373V19.2259C11.6812 19.6655 11.3045 20.0219 10.8397 20.0219H9.26607C8.8013 20.0219 8.42459 19.6655 8.42459 19.2259V17.7373ZM8.42459 22.5201C8.42459 22.0805 8.8013 21.7241 9.26607 21.7241H10.8397C11.3045 21.7241 11.6812 22.0805 11.6812 22.5201V24.0085C11.6812 24.4481 11.3045 24.8045 10.8397 24.8045H9.26607C8.8013 24.8045 8.42459 24.4481 8.42459 24.0085V22.5201ZM3.36786 17.7373C3.36786 17.2977 3.74457 16.9413 4.20959 16.9413H5.7831C6.24803 16.9413 6.62483 17.2977 6.62483 17.7373V19.2259C6.62483 19.6655 6.24803 20.0219 5.7831 20.0219H4.20967C3.74466 20.0219 3.36794 19.6655 3.36794 19.2259V17.7373H3.36786ZM3.36786 22.5201C3.36786 22.0805 3.74457 21.7241 4.20959 21.7241H5.7831C6.24803 21.7241 6.62483 22.0805 6.62483 22.5201V24.0085C6.62483 24.4481 6.24803 24.8045 5.7831 24.8045H4.20967C3.74466 24.8045 3.36794 24.4481 3.36794 24.0085V22.5201H3.36786Z" fill="black"/>
</svg>
