<svg width="32" height="32" viewBox="0 0 32 32" fill="none" xmlns="http://www.w3.org/2000/svg">
<path d="M25 8V9H7V8C7 7.4 7.4 7 8 7H24C24.6 7 25 7.4 25 8ZM7 20.2C7 20.8 7.4 21 8 21H24C24.6 21 25 20.8 25 20.2V11H7V20.2ZM32 5V23C32 25.8 29.8 28 27 28H21.2L22.8 30.4C23 30.7 23 31.1 22.9 31.4C22.7 31.8 22.4 32 22 32H10C9.6 32 9.3 31.8 9.1 31.5C8.9 31.2 8.9 30.8 9.2 30.5L10.8 28.1H5C2.2 28.1 0 25.9 0 23.1V5C0 2.2 2.2 0 5 0H27C29.8 0 32 2.2 32 5ZM27 8C27 6.3 25.7 5 24 5H8C6.3 5 5 6.3 5 8V20C5 21.7 6.3 23 8 23H24C25.7 23 27 21.7 27 20V8Z" fill="black"/>
</svg>
