<svg width="56" height="64" viewBox="0 0 56 64" fill="none" xmlns="http://www.w3.org/2000/svg">
<path fill-rule="evenodd" clip-rule="evenodd" d="M17.9999 8.46766C17.9999 3.89193 21.6949 0 26.3287 0C30.9543 0 34.6576 3.88402 34.6576 8.46766C34.6576 13.0602 30.9213 16.7965 26.3287 16.7965C21.7362 16.7965 17.9999 13.0602 17.9999 8.46766ZM22.1643 8.46766C22.1643 10.7639 24.0325 12.6321 26.3287 12.6321C28.625 12.6321 30.4932 10.7639 30.4932 8.46766C30.4932 6.13503 28.5861 4.16442 26.3287 4.16442C24.0714 4.16442 22.1643 6.13503 22.1643 8.46766Z" fill="#2362FB"/>
<path d="M0.2943 44.6878L2.48064 41.5014C3.72245 39.6913 5.37818 38.2135 7.30609 37.1943C9.23399 36.1752 11.3766 35.6452 13.5506 35.6496H32.9972C33.8747 35.6464 34.7411 35.8485 35.5291 36.2401C36.3172 36.6317 37.0057 37.2022 37.5411 37.9075C37.8909 38.3704 38.1706 38.8838 38.3708 39.4306L46.1784 31.6802C47.0115 30.8434 48.0779 30.2863 49.2333 30.0844C50.3888 29.8825 51.5775 30.0455 52.6386 30.5513L52.7308 30.5913C53.5533 30.9806 54.2716 31.5647 54.8251 32.2944C55.3786 33.0241 55.7511 33.8781 55.9112 34.7843C56.0712 35.6906 56.0143 36.6226 55.745 37.5019C55.4757 38.3812 55.0021 39.1819 54.364 39.8366L40.083 54.3807C38.6662 55.8255 36.981 56.9708 35.125 57.7506C33.2689 58.5303 31.2788 58.9288 29.2699 58.9232H16.1848C15.6187 58.9231 15.0607 59.0586 14.5561 59.3186C14.0514 59.5786 13.6144 59.9558 13.2806 60.4195L11.1733 63.3321C10.9113 63.6864 10.5213 63.9206 10.0891 63.9833C9.65681 64.0459 9.21774 63.9318 8.86843 63.6661C8.51912 63.4003 8.28819 63.0047 8.22644 62.5662C8.19587 62.3491 8.20775 62.128 8.2614 61.9156C8.31506 61.7031 8.40944 61.5035 8.53916 61.328L10.6399 58.4355C11.2797 57.5532 12.1147 56.8355 13.0778 56.3401C14.0408 55.8447 15.105 55.5854 16.1848 55.5831H29.2699C30.8455 55.5878 32.4064 55.2755 33.8623 54.6643C35.3182 54.0532 36.6402 53.1553 37.7518 52.0226L52.0064 37.4518C52.2781 37.1796 52.4809 36.8449 52.5976 36.4761C52.7144 36.1073 52.7416 35.7154 52.6769 35.3337C52.6122 34.9519 52.4576 34.5917 52.2262 34.2836C51.9949 33.9755 51.6935 33.7286 51.3479 33.564L51.2557 33.5239C50.8022 33.3062 50.2938 33.2349 49.7992 33.3197C49.3046 33.4046 48.8475 33.6414 48.4898 33.9982L37.7847 44.6945C37.2612 45.4989 36.5493 46.1591 35.7126 46.616C34.876 47.073 33.9408 47.3125 32.9906 47.3131H20.7945C20.3579 47.3131 19.9391 47.1372 19.6304 46.824C19.3216 46.5108 19.1482 46.086 19.1482 45.6431C19.1482 45.2002 19.3216 44.7754 19.6304 44.4622C19.9391 44.149 20.3579 43.973 20.7945 43.973H32.9906C33.642 43.973 34.2668 43.7105 34.7275 43.2432C35.1881 42.776 35.4469 42.1422 35.4469 41.4814C35.4469 40.8205 35.1881 40.1868 34.7275 39.7195C34.2668 39.2522 33.642 38.9897 32.9906 38.9897H13.5506C11.9101 38.9878 10.2936 39.3891 8.83943 40.1592C7.38521 40.9294 6.13658 42.0454 5.20039 43.4119L3.01405 46.5983C2.7643 46.9642 2.3815 47.2144 1.94987 47.294C1.51824 47.3735 1.07313 47.2759 0.71247 47.0225C0.351808 46.7692 0.105134 46.3809 0.0267117 45.943C-0.0517104 45.5052 0.0445439 45.0537 0.2943 44.6878Z" fill="#2362FB"/>
<path fill-rule="evenodd" clip-rule="evenodd" d="M16.3286 16.0002C11.6948 16.0002 7.9998 19.8921 7.9998 24.4678C7.9998 29.0603 11.7361 32.7967 16.3286 32.7967C20.9212 32.7967 24.6575 29.0603 24.6575 24.4678C24.6575 19.8842 20.9542 16.0002 16.3286 16.0002ZM16.3286 28.6322C14.0324 28.6322 12.1642 26.7641 12.1642 24.4678C12.1642 22.1352 14.0712 20.1646 16.3286 20.1646C18.586 20.1646 20.4931 22.1352 20.4931 24.4678C20.4931 26.7641 18.6249 28.6322 16.3286 28.6322Z" fill="#2362FB"/>
<path fill-rule="evenodd" clip-rule="evenodd" d="M28.0002 24.4678C28.0002 19.8921 31.6952 16.0002 36.3291 16.0002C40.9546 16.0002 44.6579 19.8842 44.6579 24.4678C44.6579 29.0604 40.9216 32.7967 36.3291 32.7967C31.7365 32.7967 28.0002 29.0604 28.0002 24.4678ZM32.1646 24.4678C32.1646 26.7641 34.0328 28.6322 36.3291 28.6322C38.6253 28.6322 40.4935 26.7641 40.4935 24.4678C40.4935 22.1352 38.5865 20.1646 36.3291 20.1646C34.0717 20.1646 32.1646 22.1352 32.1646 24.4678Z" fill="#2362FB"/>
</svg>
